inDegrees=yes
name=ik_S53_A06_T02
DataType=double
version=3
OpenSimVersion=4.3-2021-08-27-4bc7ad9
endheader
time	pelvis_tilt	pelvis_list	pelvis_rotation	pelvis_tx	pelvis_ty	pelvis_tz	hip_flexion_r	hip_adduction_r	hip_rotation_r	knee_angle_r	knee_angle_r_beta	ankle_angle_r	subtalar_angle_r	mtp_angle_r	hip_flexion_l	hip_adduction_l	hip_rotation_l	knee_angle_l	knee_angle_l_beta	ankle_angle_l	subtalar_angle_l	mtp_angle_l	lumbar_extension	lumbar_bending	lumbar_rotation	arm_flex_r	arm_add_r	arm_rot_r	elbow_flex_r	pro_sup_r	wrist_flex_r	wrist_dev_r	arm_flex_l	arm_add_l	arm_rot_l	elbow_flex_l	pro_sup_l	wrist_flex_l	wrist_dev_l
0	0	0	0	0	0.9399999999999999	0	0	0	0	0	0	0	0	0	0	0	0	0	0	0	0	0	0	0	0	0	0	0	0	89.99999999963507	0	0	0	0	0	0	89.99999999869995	0	0
0.01666666666666667	-5.851259293367243	-3.893859937445745	25.76181514129346	0	0.9399999999999999	0	3.168989579969027	-1.479696712793233	-1.066062154640284	4.835065162093901	0.0843878066270119	0	0	0	3.168989579969027	-1.479696712793233	-1.066062154640284	4.835065162093901	0.0843878066270119	0	0	0	-3.032063287839134	-1.146262591591897	5.496602167528475	33.87407466153094	-9.57522070036752	-4.334247024817249	52.54573917620228	142.5669197765663	0	0	31.5311448453659	-10.36290657819483	-4.024501042410726	38.28603100176791	119.9051561693105	0	0
0.03333333333333333	-5.685672138144832	-4.124762334879196	26.92203205025327	0	0.9399999999999999	0	45.6879762667381	-10.0720470669341	-10.53614774963438	54.26046990972392	0.9470238536039927	0	0	0	45.6879762667381	-10.0720470669341	-10.53614774963438	54.26046990972392	0.9470238536039927	0	0	0	-3.069854990045848	-0.7817992786511028	4.355796423992857	33.87375572890547	-9.599444163890167	-4.323799596453855	52.53864606253309	142.5610524856984	0	0	31.51539534449119	-10.36986612392729	-4.043470953022715	38.28396669306952	119.8610356010277	0	0
0.05	-5.676964483038053	-4.11052344700299	26.92823852526032	0	0.9399999999999999	0	45.68727384632709	-10.07188109908726	-10.53515666694898	54.2610048617948	0.9470331902789698	0	0	0	45.68727384632709	-10.07188109908726	-10.53515666694898	54.2610048617948	0.9470331902789698	0	0	0	-3.05869675529435	-0.773180599425339	4.35038487519914	33.85239804166623	-9.60880863044796	-4.313001981411561	52.52943687953921	142.5654027408886	0	0	31.49631144208038	-10.36699766788661	-4.043255326512424	38.26071876000959	119.8476547627265	0	0
0.06666666666666667	-5.670789692370305	-4.109741293369527	26.9344856207361	0	0.9399999999999999	0	45.68656687788148	-10.07166943996257	-10.53404622088897	54.26152777592139	0.9470423168521841	0	0	0	45.68656687788148	-10.07166943996257	-10.53404622088897	54.26152777592139	0.9470423168521841	0	0	0	-3.055518305948549	-0.7757675672577531	4.349466231020477	33.85181359331996	-9.611616595576832	-4.307901851048078	52.52456109919193	142.5599898451794	0	0	31.49125276906546	-10.36763274066136	-4.042523955200022	38.25250524151318	119.8412751792197	0	0
0.08333333333333333	-5.662482916320386	-4.107187693785465	26.94475601114622	0	0.9399999999999999	0	45.68618732797515	-10.07157270947303	-10.53349610194845	54.26181474934983	0.9470473254833762	0	0	0	45.68618732797515	-10.07157270947303	-10.53349610194845	54.26181474934983	0.9470473254833762	0	0	0	-3.048507806553201	-0.7773678749469333	4.347548915634107	33.85428327353387	-9.619007744757443	-4.307751428596536	52.51171003397581	142.5528793045087	0	0	31.50690935245623	-10.37861028100303	-4.055797252926197	38.22120747999325	119.8633335680086	0	0
0.09999999999999999	-5.648806205104611	-4.099699106493171	26.95623541542857	0	0.9399999999999999	0	45.68583569786838	-10.0715181643127	-10.53307782226966	54.26209230065652	0.9470521696675211	0	0	0	45.68583569786838	-10.0715181643127	-10.53307782226966	54.26209230065652	0.9470521696675211	0	0	0	-3.034433923333873	-0.7769823990564821	4.345126008713952	33.84754430414632	-9.619399438006074	-4.302254976053406	52.4865748406216	142.556303211034	0	0	31.50195769240174	-10.38606774060132	-4.053666734912347	38.18411707720488	119.9008276954646	0	0
0.1166666666666667	-5.6431230346691	-4.096859918737867	26.96291380195372	0	0.9399999999999999	0	45.68518739683324	-10.07128666465433	-10.53196353180419	54.26256102819908	0.9470603505064336	0	0	0	45.68518739683324	-10.07128666465433	-10.53196353180419	54.26256102819908	0.9470603505064336	0	0	0	-3.030536017602358	-0.7773501370472949	4.343699071631983	33.86069709717499	-9.63194230600608	-4.278424249489066	52.51195278349709	142.5251567125922	0	0	31.48972033331179	-10.3869556711816	-4.031825722311734	38.19667835834569	119.8931602667838	0	0
0.1333333333333333	-5.647411915688649	-4.089858099764482	26.97081000817148	0	0.9399999999999999	0	45.68514315455609	-10.071321738578	-10.53202157844902	54.26261010498995	0.9470612070580204	0	0	0	45.68514315455609	-10.071321738578	-10.53202157844902	54.26261010498995	0.9470612070580204	0	0	0	-3.031085668001569	-0.7696833951779	4.35001903082934	33.86027859016918	-9.625420039146851	-4.294297821421348	52.48922189440086	142.5523477116799	0	0	31.50758283536434	-10.37685486532714	-4.029416143518841	38.16935977902362	119.986301164086	0	0
0.15	-5.636943487587	-4.07572886867433	26.9637865582303	0	0.9399999999999999	0	45.68508523027233	-10.07137733841905	-10.53212489688469	54.26267773438596	0.9470623874136521	0	0	0	45.68508523027233	-10.07137733841905	-10.53212489688469	54.26267773438596	0.9470623874136521	0	0	0	-3.015099230636289	-0.7626764711491261	4.359283817797165	33.84999178412875	-9.618416723673656	-4.289834541658836	52.46370575025822	142.5825292612153	0	0	31.49592772056446	-10.37606267645039	-4.006174774665064	38.13749324198995	120.1041928912556	0	0
0.1666666666666667	-5.634772018866639	-4.074099806936825	26.97101587347467	0	0.9399999999999999	0	45.68359601187827	-10.07095909603689	-10.52985493112659	54.26378905694492	0.9470817836513576	0	0	0	45.68359601187827	-10.07095909603689	-10.52985493112659	54.26378905694492	0.9470817836513576	0	0	0	-3.017979269288102	-0.763426934519964	4.361234523818655	33.8406575278563	-9.642355680270335	-4.266604907547924	52.4954355507666	142.5257786193906	0	0	31.48291502904552	-10.39310443206766	-3.971940950716887	38.17827778542036	120.1386532811165	0	0
0.1833333333333333	-5.642912947371102	-4.068657505300753	26.97008269076212	0	0.9399999999999999	0	45.68332344709496	-10.07093398300426	-10.52957617751579	54.26400955945674	0.9470856321461978	0	0	0	45.68332344709496	-10.07093398300426	-10.52957617751579	54.26400955945674	0.9470856321461978	0	0	0	-3.023315068994133	-0.7558623348026197	4.371543013050728	33.84964983467959	-9.630095558945939	-4.267780582354293	52.48571981001705	142.5626847888326	0	0	31.50806854389045	-10.38293720424345	-3.941103933960255	38.17041784167129	120.2597210765998	0	0
0.2	-5.645143025169792	-4.069269235863119	26.9593756112127	0	0.9399999999999999	0	45.6827349555485	-10.0707940461667	-10.52874795038183	54.26445710080048	0.9470934432161849	0	0	0	45.6827349555485	-10.0707940461667	-10.52874795038183	54.26445710080048	0.9470934432161849	0	0	0	-3.02732263951824	-0.7565622813417037	4.38058563525817	33.85720438070493	-9.629587568930592	-4.268294127015639	52.48447465224012	142.5648885453455	0	0	31.51899861017394	-10.38151538006925	-3.904073004047685	38.17203369843813	120.3786508672977	0	0
